<?xml version="1.0" encoding="UTF-8" standalone="no"?>
<svg
   viewBox="0 0 384 512"
   version="1.1"
   id="svg1"
   sodipodi:docname="xmark-solid-2.svg"
   inkscape:version="1.3 (0e150ed6c4, 2023-07-21)"
   xmlns:inkscape="http://www.inkscape.org/namespaces/inkscape"
   xmlns:sodipodi="http://sodipodi.sourceforge.net/DTD/sodipodi-0.dtd"
   xmlns="http://www.w3.org/2000/svg"
   xmlns:svg="http://www.w3.org/2000/svg">
  <defs
     id="defs1">
    <clipPath
       clipPathUnits="userSpaceOnUse"
       id="clipPath3">
      <g
         inkscape:label="Clip"
         id="use3">
        <path
           style="fill:#008000;stroke-width:0.414232"
           d="m 56.335537,414.85955 c -11.217895,-2.98919 -20.018279,-11.67976 -23.077005,-22.78907 -1.019985,-3.70458 -1.003475,-12.38215 0.03074,-16.15504 1.11002,-4.04944 3.308081,-8.31074 6.026278,-11.68293 1.339894,-1.66227 26.127784,-26.69436 55.084202,-55.62687 l 52.648028,-52.60457 -54.636797,-54.68149 -54.636801,-54.68149 -2.07785,-4.34944 c -2.511992,-5.25819 -3.386242,-8.97854 -3.386242,-14.41006 0,-12.00151 6.892164,-23.068 17.604856,-28.267482 4.428579,-2.149442 7.457241,-2.923675 12.462602,-3.185884 6.855795,-0.359144 13.333188,1.360736 19.048395,5.057736 1.646986,1.06539 20.263857,19.3726 56.516187,55.57615 l 54.06017,53.98743 53.433,-53.46966 c 29.38816,-29.4083 54.37503,-54.17789 55.52638,-55.04351 2.5649,-1.92836 6.16988,-3.776206 9.72589,-4.98531 4.13217,-1.40501 11.93662,-1.624796 16.57095,-0.466665 9.33137,2.331935 17.08214,8.508575 21.12216,16.832375 2.20701,4.54719 2.94004,7.50434 3.18314,12.84119 0.35824,7.86466 -1.93585,14.8615 -6.88641,21.00315 -1.33989,1.66226 -26.12778,26.69435 -55.0842,55.62687 l -52.64802,52.60456 54.61134,54.68149 c 54.30968,54.37944 54.6212,54.7008 56.39491,58.1771 2.69904,5.28981 3.35316,7.77399 3.61018,13.71035 0.25588,5.91003 -0.50521,9.96223 -2.78693,14.83814 -8.59926,18.37621 -31.90117,24.04974 -48.04234,11.69731 -1.48088,-1.13328 -26.55097,-25.93062 -55.71131,-55.10521 l -53.0188,-53.0447 -54.68149,54.61134 c -53.503625,53.435 -54.752865,54.6476 -57.99534,56.29448 -5.715659,2.90303 -8.001065,3.49062 -14.291,3.67427 -4.641126,0.13551 -6.120467,0.0225 -8.69887,-0.66456 z"
           id="path3" />
      </g>
    </clipPath>
  </defs>
  <sodipodi:namedview
     id="namedview1"
     pagecolor="#ffffff"
     bordercolor="#000000"
     borderopacity="0.25"
     inkscape:showpageshadow="2"
     inkscape:pageopacity="0.0"
     inkscape:pagecheckerboard="0"
     inkscape:deskcolor="#d1d1d1"
     inkscape:zoom="2.4141067"
     inkscape:cx="116.81339"
     inkscape:cy="251.02453"
     inkscape:window-width="1920"
     inkscape:window-height="1112"
     inkscape:window-x="-8"
     inkscape:window-y="1342"
     inkscape:window-maximized="1"
     inkscape:current-layer="svg1" />
  <!--! Font Awesome Pro 6.4.2 by @fontawesome - https://fontawesome.com License - https://fontawesome.com/license (Commercial License) Copyright 2023 Fonticons, Inc. -->
  <path
     d="m 199.27577,264.09954 c 12.5,-12.5 8.35768,9.86588 -4.14232,-2.63412 -12.5,-12.5 16.90782,-37.76814 4.40782,-25.26814 L 192,210.7 86.6,105.4 c -12.5,-12.5 -32.8,-12.5 -45.3,0 -12.5,12.5 -12.5,32.8 0,45.3 l 105.4,105.3 16.89841,6.39858 c -12.5,12.5 14.01084,-21.05015 26.51084,-8.55015 12.5,12.5 -53.77447,-57.91942 -54.52989,-48.87936 L 192,301.3 297.4,406.6 c 12.5,12.5 32.8,12.5 45.3,0 12.5,-12.5 12.5,-32.8 0,-45.3 L 237.3,256 Z"
     id="path1"
     style="fill:#008000"
     sodipodi:nodetypes="cscccscccscccsccc" />
  <path
     d="m 343.02987,150.96341 c 12.5,-12.5 12.5,-32.8 0,-45.3 -12.5,-12.500004 -32.8,-12.500004 -45.3,0 l -105.29999,105.4 -27.93865,42.16655 c -3.3869,18.98162 21.87861,-15.81385 8.55015,-2.48539 -12.5,12.5 181.13295,-161.421857 26.09661,-45.83101 l -52.00811,51.44985 -105.300011,105.4 c -12.5,12.5 -12.5,32.8 0,45.3 12.5,12.5 32.8,12.5 45.3,0 l 105.300011,-105.4 61.90564,-62.46391 c 6.28652,-29.75165 -17.32206,-21.46702 -4.82206,-33.96702 12.5,-12.5 -22.29548,11.10858 -34.79548,-1.39142 l 23.0119,52.52235 z"
     id="path1-2"
     style="fill:#800000"
     sodipodi:nodetypes="cscccscccscccsccc" />
</svg>
