<?xml version="1.0" encoding="UTF-8" standalone="no"?>
<svg
   viewBox="0 0 384 512"
   version="1.1"
   id="svg1"
   sodipodi:docname="xmark-solid-1.svg"
   inkscape:version="1.3 (0e150ed6c4, 2023-07-21)"
   xmlns:inkscape="http://www.inkscape.org/namespaces/inkscape"
   xmlns:sodipodi="http://sodipodi.sourceforge.net/DTD/sodipodi-0.dtd"
   xmlns="http://www.w3.org/2000/svg"
   xmlns:svg="http://www.w3.org/2000/svg">
  <defs
     id="defs1" />
  <sodipodi:namedview
     id="namedview1"
     pagecolor="#ffffff"
     bordercolor="#000000"
     borderopacity="0.25"
     inkscape:showpageshadow="2"
     inkscape:pageopacity="0.0"
     inkscape:pagecheckerboard="0"
     inkscape:deskcolor="#d1d1d1"
     inkscape:zoom="1.7070312"
     inkscape:cx="192.14645"
     inkscape:cy="256"
     inkscape:window-width="1920"
     inkscape:window-height="1112"
     inkscape:window-x="-8"
     inkscape:window-y="1342"
     inkscape:window-maximized="1"
     inkscape:current-layer="svg1" />
  <!--! Font Awesome Pro 6.4.2 by @fontawesome - https://fontawesome.com License - https://fontawesome.com/license (Commercial License) Copyright 2023 Fonticons, Inc. -->
  <path
     d="M342.6 150.6c12.5-12.5 12.5-32.8 0-45.3s-32.8-12.5-45.3 0L192 210.7 86.6 105.4c-12.5-12.5-32.8-12.5-45.3 0s-12.5 32.8 0 45.3L146.7 256 41.4 361.4c-12.5 12.5-12.5 32.8 0 45.3s32.8 12.5 45.3 0L192 301.3 297.4 406.6c12.5 12.5 32.8 12.5 45.3 0s12.5-32.8 0-45.3L237.3 256 342.6 150.6z"
     id="path1" />
  <path
     style="fill:#800000;stroke-width:0.585812"
     d="m 56.3018,414.70745 c -12.614314,-3.39231 -21.756474,-13.70029 -23.645485,-26.66078 -0.581161,-3.98734 -0.53903,-5.42892 0.273506,-9.35844 1.195017,-5.77923 3.263257,-10.36521 6.476304,-14.36012 1.363702,-1.69555 26.136871,-26.7618 55.051484,-55.70279 L 147.02964,256.00533 92.943126,201.81502 C 60.333407,169.14272 38.138548,146.46164 37.048253,144.69565 26.416629,127.47529 34.613725,104.86412 53.961186,98.042391 c 2.933352,-1.034271 5.069709,-1.326088 9.892361,-1.351254 7.258576,-0.03788 12.020155,1.319018 17.437423,4.969103 1.962269,1.32214 25.64435,24.56124 56.95506,55.88966 l 53.59614,53.62648 54.77914,-54.67386 c 53.29217,-53.18974 54.89841,-54.73064 59.17274,-56.76601 12.87416,-6.130475 26.37048,-3.907289 36.38802,5.99403 9.9534,9.83793 12.17819,24.52487 5.63625,37.20768 -1.54163,2.98874 -9.95224,11.67133 -56.18866,58.00565 -29.90661,29.96993 -54.37566,54.74654 -54.37566,55.05914 0,0.3126 24.59877,25.21966 54.66393,55.34903 58.52464,58.64965 56.58898,56.52262 58.71851,64.52357 1.1288,4.24105 1.08209,12.40551 -0.0936,16.36589 -4.12005,13.87843 -16.59456,23.41995 -30.57166,23.38371 -7.48565,-0.0194 -14.69354,-2.85707 -20.91561,-8.23423 -2.02411,-1.74925 -26.97215,-26.44174 -55.44008,-54.8722 l -51.75989,-51.69173 -54.77448,54.71146 c -59.316121,59.24789 -56.803629,56.97403 -65.43813,59.22303 -4.177106,1.088 -11.186226,1.06328 -15.34118,-0.0541 z"
     id="path2" />
</svg>
